<svg width="14" height="14" viewBox="0 0 14 14" fill="none" xmlns="http://www.w3.org/2000/svg">
<path d="M3.15216 7.95489V10.8625C3.15216 11.7778 3.90059 12.5316 4.82133 12.5316H10.098C11.0134 12.5316 11.7672 11.7832 11.7672 10.8625V7.95489C11.7672 7.80413 11.6488 7.68567 11.498 7.68567H3.42138C3.27062 7.68567 3.15216 7.80413 3.15216 7.95489ZM5.77975 10.5825C5.65591 10.7117 5.48361 10.7817 5.30592 10.7817C5.26285 10.7817 5.21977 10.7763 5.1767 10.7709C5.13362 10.7602 5.09055 10.7494 5.04747 10.7279C5.00978 10.7117 4.96671 10.6902 4.9344 10.6686C4.89671 10.6417 4.85902 10.6148 4.8321 10.5825C4.70287 10.4586 4.63287 10.2863 4.63287 10.1087C4.63287 9.93097 4.70287 9.75867 4.8321 9.63483C4.85902 9.60252 4.89671 9.5756 4.9344 9.54867C4.96671 9.52714 5.00978 9.5056 5.04747 9.48945C5.09055 9.46791 5.13362 9.45714 5.1767 9.44637C5.39207 9.4033 5.6236 9.47868 5.77975 9.63483C5.90898 9.75867 5.97898 9.93097 5.97898 10.1087C5.97898 10.2863 5.90898 10.4586 5.77975 10.5825ZM10.0873 10.5825C10.0604 10.6148 10.0227 10.6417 9.98497 10.6686C9.95267 10.6902 9.90959 10.7117 9.8719 10.7279C9.82883 10.7494 9.78575 10.7602 9.74806 10.7709C9.6996 10.7763 9.65653 10.7817 9.61345 10.7817C9.57038 10.7817 9.5273 10.7763 9.48422 10.7709C9.44115 10.7602 9.39807 10.7494 9.355 10.7279C9.31731 10.7117 9.27423 10.6902 9.24193 10.6686C9.20424 10.6417 9.16654 10.6148 9.13962 10.5825C9.0104 10.4586 8.9404 10.2863 8.9404 10.1087C8.9404 9.93097 9.0104 9.75867 9.13962 9.63483C9.16654 9.60252 9.20424 9.5756 9.24193 9.54867C9.27423 9.52714 9.31731 9.5056 9.355 9.48945C9.39807 9.46791 9.44115 9.45714 9.48422 9.44637C9.57038 9.43022 9.65653 9.43022 9.74806 9.44637C9.78575 9.45714 9.82883 9.46791 9.8719 9.48945C9.90959 9.5056 9.95267 9.52714 9.98497 9.54867C10.0227 9.5756 10.0604 9.60252 10.0873 9.63483C10.2165 9.75867 10.2865 9.93097 10.2865 10.1087C10.2865 10.2863 10.2165 10.4586 10.0873 10.5825Z" fill="#647B64"/>
<path d="M10.098 1.76318H4.82133C3.90059 1.76318 3.15216 2.51162 3.15216 3.43235V4.72461C3.15216 4.87537 3.27062 4.99383 3.42138 4.99383H11.498C11.6488 4.99383 11.7672 4.87537 11.7672 4.72461V3.43235C11.7672 2.51162 11.0188 1.76318 10.098 1.76318ZM8.80579 3.78234H6.11359C5.89282 3.78234 5.70975 3.59927 5.70975 3.37851C5.70975 3.15775 5.89282 2.97468 6.11359 2.97468H8.80579C9.02655 2.97468 9.20962 3.15775 9.20962 3.37851C9.20962 3.59927 9.02655 3.78234 8.80579 3.78234Z" fill="#647B64"/>
<path d="M11.498 7.14706H3.42138C3.27062 7.14706 3.15216 7.0286 3.15216 6.87784V5.80096C3.15216 5.6502 3.27062 5.53174 3.42138 5.53174H11.498C11.6488 5.53174 11.7672 5.6502 11.7672 5.80096V6.87784C11.7672 7.0286 11.6488 7.14706 11.498 7.14706Z" fill="#647B64"/>
</svg>
