<svg width="46" height="33" viewBox="0 0 46 33" fill="none" xmlns="http://www.w3.org/2000/svg">
<path d="M19.3112 22.7498C18.6521 22.7498 18.0598 22.3472 17.8173 21.7343L16.8536 19.2988C16.6111 18.6859 16.0188 18.2833 15.3597 18.2833H8.76184C8.09167 18.2833 7.49189 18.6993 7.25707 19.327L6.36707 21.7061C6.13226 22.3338 5.53248 22.7498 4.8623 22.7498H2.41622C1.26812 22.7498 0.490549 21.5804 0.934676 20.5216L9.13008 0.985126C9.38043 0.388322 9.96444 0 10.6116 0H13.8048C14.4541 0 15.0396 0.390823 15.2886 0.990476L23.4012 20.527C23.8406 21.585 23.0631 22.7498 21.9175 22.7498H19.3112ZM13.6076 10.1976C13.0979 8.79027 11.1102 8.78306 10.5904 10.1866L10.0237 11.7166C9.63508 12.7659 10.4113 13.8812 11.5303 13.8812H12.651C13.7651 13.8812 14.541 12.775 14.1616 11.7275L13.6076 10.1976Z" fill="#647B64"/>
<path d="M45.5317 23.8101C45.5317 25.1811 45.296 26.4343 44.8247 27.5696C44.3749 28.6835 43.7215 29.6475 42.8647 30.4615C42.0078 31.2541 40.9688 31.8754 39.7478 32.3252C38.5482 32.7751 37.2094 33 35.7313 33C34.2317 33 32.8822 32.7751 31.6826 32.3252C30.483 31.8754 29.4654 31.2541 28.63 30.4615C27.7945 29.6475 27.1519 28.6835 26.702 27.5696C26.2522 26.4343 26.0273 25.1811 26.0273 23.8101V17.1266C26.0273 16.2393 25.308 15.52 24.4206 15.52H24.3242H19.3367C18.6186 15.52 17.9877 15.0434 17.7913 14.3526L17.0333 11.6856C16.7417 10.6597 17.5122 9.63973 18.5787 9.63973H29.8832C30.7705 9.63973 31.4898 10.359 31.4898 11.2463V23.3603C31.4898 23.9815 31.5648 24.5706 31.7147 25.1276C31.8861 25.6845 32.1324 26.1879 32.4538 26.6378C32.7965 27.0662 33.2356 27.409 33.7712 27.666C34.3281 27.9231 34.9922 28.0516 35.7634 28.0516C36.5346 28.0516 37.1879 27.9231 37.7235 27.666C38.2804 27.409 38.7303 27.0662 39.073 26.6378C39.4158 26.1879 39.6621 25.6845 39.8121 25.1276C39.962 24.5706 40.037 23.9815 40.037 23.3603V11.2463C40.037 10.359 40.7563 9.63973 41.6436 9.63973H43.925C44.8123 9.63973 45.5317 10.359 45.5317 11.2463V23.8101Z" fill="#647B64"/>
</svg>
