<svg width="25" height="24" viewBox="0 0 25 24" fill="none" xmlns="http://www.w3.org/2000/svg">
<path d="M16.1327 0.630775C13.8055 0.270048 11.4317 0.270048 9.1044 0.630775C8.15022 0.782048 7.45202 1.59659 7.45202 2.55077V6.83294H3.16985C2.21567 6.83294 1.40113 7.53114 1.24985 8.48532C0.889127 10.8126 0.889127 13.1864 1.24985 15.5137C1.40113 16.4678 2.21567 17.166 3.16985 17.166H5.12475C5.45057 17.166 5.70657 16.91 5.70657 16.5842V14.5828C5.70657 12.1973 7.64984 10.254 10.0353 10.254H15.2018C15.6673 10.254 16.0397 9.88167 16.0397 9.41622V5.66931C16.0397 5.34349 16.2957 5.08749 16.6215 5.08749H17.2033C17.5291 5.08749 17.7851 4.83149 17.7851 4.50567V2.55077C17.7851 1.59659 17.0869 0.782048 16.1327 0.630775ZM10.6753 4.52893C10.1982 4.52893 9.74439 4.07512 9.74439 3.59803C9.74439 3.10931 10.1982 2.65549 10.6753 2.65549C10.908 2.65549 11.164 2.76023 11.3269 2.92314C11.5015 3.08605 11.6179 3.35367 11.6179 3.59803C11.6179 4.07512 11.164 4.52893 10.6753 4.52893Z" fill="#647B64"/>
<path d="M23.9861 8.48508C23.8348 7.5309 23.0203 6.8327 22.0661 6.8327H18.3657C18.0399 6.8327 17.7839 7.0887 17.7839 7.41452V9.41598C17.7839 10.8356 16.6319 11.9993 15.2006 11.9993H10.0341C8.60281 11.9993 7.45081 13.1513 7.45081 14.5825V21.448C7.45081 22.4022 8.149 23.2167 9.10319 23.368C11.4305 23.7287 13.8043 23.7287 16.1315 23.368C17.0857 23.2167 17.7839 22.4022 17.7839 21.448V17.1658H22.0661C23.0203 17.1658 23.8348 16.4676 23.9861 15.5134C24.3468 13.1861 24.3468 10.8124 23.9861 8.48508ZM14.5606 21.3433C14.0836 21.3433 13.6181 20.8894 13.6181 20.4007C13.6181 19.912 14.0719 19.4582 14.5606 19.4582C14.7817 19.4582 15.0494 19.5629 15.2123 19.7142C15.3868 19.8771 15.5032 20.1563 15.5032 20.3891C15.4915 20.8894 15.0377 21.3433 14.5606 21.3433Z" fill="#647B64"/>
</svg>
