<svg width="21" height="24" viewBox="0 0 21 24" fill="none" xmlns="http://www.w3.org/2000/svg">
<path d="M18.9037 5.50676L11.3401 1.06168C10.607 0.631133 9.71098 0.631133 8.97789 1.06168L1.41426 5.50676C0.704438 5.92567 0.262268 6.69367 0.262268 7.50822V16.4799C0.262268 17.306 0.704438 18.0624 1.41426 18.4813L8.97789 22.9264C9.71098 23.3569 10.607 23.3569 11.3401 22.9264L18.9037 18.4813C19.6136 18.0624 20.0557 17.2944 20.0557 16.4799V7.50822C20.0557 6.69367 19.6136 5.92567 18.9037 5.50676ZM16.4368 16.2355L10.6187 19.7264C10.479 19.8079 10.3277 19.8544 10.1648 19.8544C10.0019 19.8544 9.85063 19.8079 9.71099 19.7264L3.89281 16.2355C3.4739 15.9911 3.34589 15.4559 3.59025 15.0369C3.83461 14.618 4.36992 14.49 4.78883 14.7344L10.1532 17.9577L14.2725 15.4791L12.1081 14.1758L11.3518 14.9322C11.1772 15.1068 10.9561 15.1882 10.735 15.1882C10.5139 15.1882 10.2928 15.1068 10.1183 14.9322C9.78085 14.5948 9.78085 14.0362 10.1183 13.6988L10.5605 13.2566L8.46589 11.9999L7.86085 12.6049C7.6863 12.7795 7.46518 12.861 7.24409 12.861C7.02299 12.861 6.80194 12.7795 6.6274 12.6049C6.28994 12.2675 6.28994 11.709 6.6274 11.3715L6.92988 11.0689L3.89281 9.24204C3.62517 9.07913 3.47392 8.79986 3.47392 8.49731C3.47392 8.19477 3.63681 7.90386 3.89281 7.75259L9.71099 4.26168C9.99026 4.09877 10.3394 4.09877 10.607 4.26168L16.4252 7.75259C16.8441 7.99695 16.9721 8.53222 16.7277 8.95113C16.4834 9.3584 15.9481 9.49803 15.5292 9.25367L10.1648 6.03039L6.04558 8.50894L8.20992 9.81221L8.96624 9.05585C9.3037 8.7184 9.86231 8.7184 10.1998 9.05585C10.5372 9.39331 10.5372 9.95185 10.1998 10.2893L9.75758 10.7315L11.8521 11.9882L12.4572 11.3831C12.7946 11.0457 13.3532 11.0457 13.6907 11.3831C14.0281 11.7206 14.0281 12.2791 13.6907 12.6166L13.3881 12.9191L16.4252 14.746C16.6928 14.9089 16.8441 15.1882 16.8441 15.4908C16.8441 15.7933 16.6928 16.0842 16.4368 16.2355Z" fill="white"/>
</svg>
