<svg width="86" height="11" viewBox="0 0 86 11" fill="none" xmlns="http://www.w3.org/2000/svg">
<path d="M4.23914 1.77588C4.41307 1.37607 4.80756 1.11748 5.24356 1.11748C5.68099 1.11748 6.07647 1.37773 6.24954 1.77947L9.46901 9.25287C9.71559 9.82525 9.29586 10.4631 8.67262 10.4631C8.32006 10.4631 8.00259 10.2496 7.86957 9.92311L7.65396 9.39388C7.39056 8.74736 6.76195 8.32468 6.06383 8.32468H4.31557C3.6218 8.32468 2.99847 8.74863 2.74356 9.39388L2.53203 9.92931C2.40477 10.2514 2.0936 10.4631 1.74724 10.4631C1.13948 10.4631 0.731032 9.83997 0.973478 9.28266L4.23914 1.77588ZM5.19027 6.89908C5.88957 6.89908 6.3728 6.19952 6.12527 5.54549C5.80041 4.68715 4.58749 4.68347 4.25744 5.53983C4.00502 6.19475 4.48839 6.89908 5.19027 6.89908Z" fill="#647B64"/>
<path d="M10.134 2.22575C9.97205 1.67177 10.3875 1.11748 10.9647 1.11748C11.3577 1.11748 11.7014 1.38235 11.8015 1.76241L13.4366 7.96849C13.4386 7.97615 13.4455 7.98148 13.4534 7.98148C13.4611 7.98148 13.4679 7.97643 13.4701 7.96906L15.2797 1.93703C15.4257 1.4506 15.8734 1.11748 16.3812 1.11748C16.8913 1.11748 17.3405 1.45351 17.4844 1.94287L19.2575 7.96897C19.2597 7.97639 19.2665 7.98148 19.2742 7.98148C19.2821 7.98148 19.289 7.97619 19.2911 7.96858L20.9678 1.74061C21.0668 1.37297 21.4002 1.11748 21.7809 1.11748C22.3425 1.11748 22.7467 1.6568 22.5891 2.19582L20.4001 9.68275C20.2649 10.1452 19.8408 10.4631 19.359 10.4631C18.8846 10.4631 18.4652 10.1548 18.3237 9.70201L16.3743 3.46648C16.372 3.45899 16.365 3.45388 16.3572 3.45388C16.3493 3.45388 16.3424 3.45899 16.3401 3.46648L14.3907 9.70201C14.2492 10.1548 13.8298 10.4631 13.3554 10.4631C12.8736 10.4631 12.4495 10.1452 12.3142 9.68275L10.134 2.22575Z" fill="#647B64"/>
<path d="M24.012 3.09748C24.012 2.00396 24.8984 1.11748 25.992 1.11748H29.4768C29.8777 1.11748 30.2028 1.44252 30.2028 1.84348C30.2028 2.24444 29.8777 2.56948 29.4768 2.56948H26.8632C26.207 2.56948 25.6752 3.10137 25.6752 3.75748C25.6752 4.4136 26.207 4.94548 26.8632 4.94548H29.2656C29.6519 4.94548 29.9652 5.2587 29.9652 5.64508C29.9652 6.03146 29.6519 6.34468 29.2656 6.34468H26.9952C26.2661 6.34468 25.6752 6.93567 25.6752 7.66468C25.6752 8.3937 26.2661 8.98468 26.9952 8.98468H29.7012C30.1094 8.98468 30.4404 9.31563 30.4404 9.72388C30.4404 10.1321 30.1094 10.4631 29.7012 10.4631H25.992C24.8984 10.4631 24.012 9.57661 24.012 8.48308V3.09748Z" fill="#647B64"/>
<path d="M37.4251 2.42211C37.1168 2.76048 36.5589 2.73731 36.1481 2.53521C36.1262 2.52445 36.104 2.51387 36.0814 2.50348C35.7646 2.34508 35.4434 2.26588 35.1178 2.26588C34.9242 2.26588 34.7306 2.29228 34.537 2.34508C34.3434 2.38908 34.1674 2.46388 34.009 2.56948C33.8506 2.66628 33.7186 2.79828 33.613 2.96548C33.5162 3.12388 33.4678 3.31748 33.4678 3.54628C33.4678 3.75748 33.5118 3.93788 33.5998 4.08748C33.6878 4.23708 33.8066 4.36468 33.9562 4.47028C34.1146 4.57588 34.3038 4.66828 34.5238 4.74748C34.7438 4.82668 34.9858 4.90588 35.2498 4.98508C35.549 5.08188 35.857 5.19188 36.1738 5.31508C36.4994 5.43828 36.7942 5.60108 37.0582 5.80348C37.331 6.00588 37.551 6.26108 37.7182 6.56908C37.8942 6.87708 37.9822 7.25988 37.9822 7.71748C37.9822 8.21908 37.8898 8.65908 37.705 9.03748C37.5202 9.40708 37.2738 9.71508 36.9658 9.96148C36.6578 10.2079 36.297 10.3927 35.8834 10.5159C35.4698 10.6391 35.0342 10.7007 34.5766 10.7007C33.9694 10.7007 33.3754 10.5907 32.7946 10.3707C32.4636 10.2403 32.1669 10.0756 31.9044 9.87657C31.5738 9.6258 31.6069 9.14548 31.9102 8.86231C32.2535 8.54191 32.8026 8.60761 33.1984 8.86032C33.2835 8.91469 33.3733 8.96494 33.4678 9.01108C33.855 9.19588 34.2334 9.28828 34.603 9.28828C34.7966 9.28828 34.9946 9.26628 35.197 9.22228C35.3994 9.16948 35.5798 9.08588 35.7382 8.97148C35.9054 8.85708 36.0374 8.71628 36.1342 8.54908C36.2398 8.37308 36.2926 8.15748 36.2926 7.90228C36.2926 7.65588 36.2354 7.45348 36.121 7.29508C36.0066 7.12788 35.8526 6.98708 35.659 6.87268C35.4654 6.74948 35.2366 6.64388 34.9726 6.55588C34.7086 6.46788 34.4314 6.37548 34.141 6.27868C33.8594 6.19068 33.5778 6.08508 33.2962 5.96188C33.0146 5.83868 32.7594 5.67588 32.5306 5.47348C32.3106 5.27108 32.1302 5.02468 31.9894 4.73428C31.8486 4.43508 31.7782 4.06548 31.7782 3.62548C31.7782 3.15028 31.875 2.74108 32.0686 2.39788C32.271 2.05468 32.5306 1.77308 32.8474 1.55308C33.173 1.32428 33.5382 1.15708 33.943 1.05148C34.3566 0.937083 34.7746 0.879883 35.197 0.879883C35.6722 0.879883 36.1518 0.963483 36.6358 1.13068C36.8849 1.2152 37.1171 1.32108 37.3325 1.44832C37.6801 1.65367 37.697 2.12367 37.4251 2.42211Z" fill="#647B64"/>
<path d="M39.1995 5.76388C39.1995 5.01588 39.3227 4.34268 39.5691 3.74428C39.8243 3.13708 40.1719 2.62228 40.6119 2.19988C41.0607 1.77748 41.5887 1.45188 42.1959 1.22308C42.8119 0.994283 43.4807 0.879883 44.2023 0.879883C44.9327 0.879883 45.6059 0.994283 46.2219 1.22308C46.8379 1.45188 47.3703 1.77748 47.8191 2.19988C48.2679 2.62228 48.6155 3.13708 48.8619 3.74428C49.1171 4.34268 49.2447 5.01588 49.2447 5.76388C49.2447 6.49428 49.1171 7.16308 48.8619 7.77028C48.6155 8.36868 48.2679 8.88788 47.8191 9.32788C47.3703 9.75908 46.8379 10.0979 46.2219 10.3443C45.6059 10.5819 44.9327 10.7007 44.2023 10.7007C43.4807 10.7007 42.8119 10.5819 42.1959 10.3443C41.5887 10.0979 41.0607 9.75908 40.6119 9.32788C40.1719 8.88788 39.8243 8.36868 39.5691 7.77028C39.3227 7.16308 39.1995 6.49428 39.1995 5.76388ZM41.0079 5.76388C41.0079 6.26548 41.0827 6.72748 41.2323 7.14988C41.3907 7.56348 41.6107 7.92428 41.8923 8.23228C42.1827 8.54028 42.5215 8.78228 42.9087 8.95828C43.3047 9.12548 43.7403 9.20908 44.2155 9.20908C44.6907 9.20908 45.1263 9.12548 45.5223 8.95828C45.9183 8.78228 46.2571 8.54028 46.5387 8.23228C46.8291 7.92428 47.0491 7.56348 47.1987 7.14988C47.3571 6.72748 47.4363 6.26548 47.4363 5.76388C47.4363 5.27988 47.3571 4.83108 47.1987 4.41748C47.0491 4.00388 46.8335 3.64308 46.5519 3.33508C46.2703 3.02708 45.9315 2.78508 45.5355 2.60908C45.1395 2.43308 44.6995 2.34508 44.2155 2.34508C43.7315 2.34508 43.2915 2.43308 42.8955 2.60908C42.5083 2.78508 42.1739 3.02708 41.8923 3.33508C41.6107 3.64308 41.3907 4.00388 41.2323 4.41748C41.0827 4.83108 41.0079 5.27988 41.0079 5.76388Z" fill="#647B64"/>
<path d="M50.8502 2.64803C50.8502 1.80273 51.5355 1.11748 52.3808 1.11748C53.0233 1.11748 53.5974 1.5188 53.8182 2.12222L55.8727 7.73852C55.8767 7.74967 55.8873 7.75708 55.8992 7.75708C55.9111 7.75708 55.9217 7.74963 55.9258 7.73843L57.9548 2.13084C58.1748 1.52265 58.7523 1.11748 59.3991 1.11748C60.2474 1.11748 60.935 1.80515 60.935 2.65343V9.63808C60.935 10.0937 60.5657 10.4631 60.11 10.4631C59.6544 10.4631 59.285 10.0937 59.285 9.63808V2.96789C59.285 2.95927 59.278 2.95228 59.2694 2.95228C59.2629 2.95228 59.2571 2.9563 59.2548 2.96237L56.6254 9.92112C56.5022 10.2473 56.1899 10.4631 55.8413 10.4631C55.4912 10.4631 55.178 10.2455 55.0558 9.91749L52.4644 2.96242C52.4621 2.95633 52.4563 2.95228 52.4498 2.95228C52.4412 2.95228 52.4342 2.95926 52.4342 2.96786V9.67108C52.4342 10.1085 52.0796 10.4631 51.6422 10.4631C51.2048 10.4631 50.8502 10.1085 50.8502 9.67108V2.64803Z" fill="#647B64"/>
<path d="M62.9932 3.09748C62.9932 2.00396 63.8797 1.11748 64.9732 1.11748H68.458C68.859 1.11748 69.184 1.44252 69.184 1.84348C69.184 2.24444 68.859 2.56948 68.458 2.56948H65.8444C65.1883 2.56948 64.6564 3.10137 64.6564 3.75748C64.6564 4.4136 65.1883 4.94548 65.8444 4.94548H68.2468C68.6332 4.94548 68.9464 5.2587 68.9464 5.64508C68.9464 6.03146 68.6332 6.34468 68.2468 6.34468H65.9764C65.2474 6.34468 64.6564 6.93567 64.6564 7.66468C64.6564 8.3937 65.2474 8.98468 65.9764 8.98468H68.6824C69.0907 8.98468 69.4216 9.31563 69.4216 9.72388C69.4216 10.1321 69.0907 10.4631 68.6824 10.4631H64.9732C63.8797 10.4631 62.9932 9.57661 62.9932 8.48308V3.09748Z" fill="#647B64"/>
<path d="M81.7946 7.03108C81.7946 7.59428 81.6978 8.10468 81.5042 8.56228C81.3106 9.01108 81.0466 9.39388 80.7122 9.71068C80.3778 10.0275 79.9818 10.2739 79.5242 10.4499C79.0667 10.6171 78.5694 10.7007 78.0326 10.7007C77.4958 10.7007 76.9986 10.6171 76.541 10.4499C76.0834 10.2739 75.683 10.0275 75.3398 9.71068C75.0054 9.39388 74.7414 9.01108 74.5478 8.56228C74.363 8.10468 74.2706 7.59428 74.2706 7.03108V1.94908C74.2706 1.4898 74.643 1.11748 75.1022 1.11748C75.5615 1.11748 75.9338 1.4898 75.9338 1.94908V6.96508C75.9338 7.23788 75.969 7.51068 76.0395 7.78348C76.1098 8.04748 76.2242 8.28508 76.3826 8.49628C76.5499 8.70748 76.7654 8.87908 77.0294 9.01108C77.3022 9.14308 77.6367 9.20908 78.0326 9.20908C78.4286 9.20908 78.7586 9.14308 79.0226 9.01108C79.2954 8.87908 79.511 8.70748 79.6694 8.49628C79.8366 8.28508 79.9555 8.04748 80.0258 7.78348C80.0963 7.51068 80.1314 7.23788 80.1314 6.96508V1.94909C80.1314 1.4898 80.5038 1.11748 80.9631 1.11748C81.4223 1.11748 81.7946 1.4898 81.7946 1.94908V7.03108Z" fill="#647B64"/>
<path d="M83.7729 1.94908C83.7729 1.4898 84.1452 1.11748 84.6045 1.11748C85.0638 1.11748 85.4361 1.4898 85.4361 1.94908V9.63148C85.4361 10.0908 85.0638 10.4631 84.6045 10.4631C84.1452 10.4631 83.7729 10.0908 83.7729 9.63148V1.94908Z" fill="#647B64"/>
</svg>
