<svg width="14" height="13" viewBox="0 0 14 13" fill="none" xmlns="http://www.w3.org/2000/svg">
<path d="M12.176 7.8941L11.9553 8.8956C11.573 10.6186 10.2215 11.8463 8.27235 11.8463H5.70937C3.76021 11.8463 2.40872 10.6186 2.02643 8.8956L1.80567 7.8941C1.69798 7.40412 1.98874 6.84952 2.45718 6.66107L3.22177 6.35416L6.18858 5.1642C6.44703 5.0619 6.72164 5.00806 6.99086 5.00806C7.26008 5.00806 7.53468 5.0619 7.79313 5.1642L10.7599 6.35416L11.5245 6.66107C11.993 6.84952 12.2837 7.40412 12.176 7.8941Z" fill="#647B64"/>
<path d="M10.7606 4.30795V5.0833C10.7606 5.27176 10.5668 5.40637 10.3891 5.33099L8.08998 4.41025C7.38462 4.13565 6.5985 4.13565 5.88776 4.41564L3.594 5.33637C3.41631 5.41175 3.22247 5.27714 3.22247 5.08869V4.30795C3.22247 3.41952 3.94937 2.69263 4.8378 2.69263H9.14532C10.0337 2.69263 10.7606 3.41952 10.7606 4.30795Z" fill="#647B64"/>
<path d="M8.33783 2.69296H5.64563V1.61608C5.64563 1.31994 5.88793 1.07764 6.18407 1.07764H7.79939C8.09554 1.07764 8.33783 1.31994 8.33783 1.61608V2.69296Z" fill="#647B64"/>
</svg>
